<?xml version="1.0" encoding="UTF-8" standalone="no"?>
<!-- Created with Inkscape (http://www.inkscape.org/) -->

<svg
   xmlns:dc="http://purl.org/dc/elements/1.1/"
   xmlns:cc="http://creativecommons.org/ns#"
   xmlns:rdf="http://www.w3.org/1999/02/22-rdf-syntax-ns#"
   xmlns:svg="http://www.w3.org/2000/svg"
   xmlns="http://www.w3.org/2000/svg"
   xmlns:sodipodi="http://sodipodi.sourceforge.net/DTD/sodipodi-0.dtd"
   xmlns:inkscape="http://www.inkscape.org/namespaces/inkscape"
   version="1.1"
   id="svg869"
   width="81"
   height="81"
   viewBox="0 0 81 81"
   sodipodi:docname="logo.svg"
   inkscape:version="0.92.3 (2405546, 2018-03-11)">
  <metadata
     id="metadata875">
    <rdf:RDF>
      <cc:Work
         rdf:about="">
        <dc:format>image/svg+xml</dc:format>
        <dc:type
           rdf:resource="http://purl.org/dc/dcmitype/StillImage" />
        <dc:title></dc:title>
      </cc:Work>
    </rdf:RDF>
  </metadata>
  <defs
     id="defs873" />
  <sodipodi:namedview
     pagecolor="#ffffff"
     bordercolor="#666666"
     borderopacity="1"
     objecttolerance="10"
     gridtolerance="10"
     guidetolerance="10"
     inkscape:pageopacity="0"
     inkscape:pageshadow="2"
     inkscape:window-width="1920"
     inkscape:window-height="1016"
     id="namedview871"
     showgrid="false"
     inkscape:pagecheckerboard="true"
     scale-x="1"
     fit-margin-top="0"
     fit-margin-left="0"
     fit-margin-right="0"
     fit-margin-bottom="0"
     inkscape:zoom="11.811991"
     inkscape:cx="36.450775"
     inkscape:cy="23.291351"
     inkscape:window-x="1920"
     inkscape:window-y="1077"
     inkscape:window-maximized="1"
     inkscape:current-layer="svg869" />
  <path
     style="fill:#ffffff;fill-opacity:1"
     d="M 28.969146,78.924738 C 18.577937,76.06443 9.2117638,67.942441 4.3536018,57.579071 1.9562796,52.465134 1.6931946,50.766702 1.6931946,40.403925 c 0,-10.3355 0.266839,-12.069087 2.6351652,-17.120011 C 11.199108,8.6306886 24.274501,0.40392626 40.693195,0.40392626 c 16.418694,0 29.494087,8.22676234 36.364835,22.87998774 2.368326,5.050924 2.635165,6.784511 2.635165,17.120011 0,10.362777 -0.263085,12.061209 -2.660407,17.175146 -3.175253,6.773409 -9.605015,14.017036 -15.51808,17.482322 -8.71445,5.107008 -22.208293,6.708805 -32.545562,3.863345 z M 52.857059,75.849362 C 61.372262,73.456293 71.171744,64.486186 74.826384,55.739402 77.515091,49.304419 78.413554,40.639035 77.161625,33.216757 75.077862,20.862811 64.74903,8.7442816 52.963674,4.8259746 c -6.808719,-2.263711 -17.732239,-2.263711 -24.540958,0 C 16.63736,8.7442816 6.3085278,20.862811 4.2247648,33.216757 2.0051406,46.376176 5.5562288,57.897394 14.627978,66.969142 25.114244,77.455409 37.17416,80.256802 52.857059,75.849362 Z M 28.631539,74.536004 C 19.176517,71.308777 10.76106,63.210352 7.3282038,54.035223 4.3974928,46.202196 4.4026318,34.591918 7.3402858,26.740336 10.353981,18.685513 19.584375,9.4212302 27.480708,6.5259696 40.522004,1.7442615 55.257536,4.5685166 64.913133,13.700377 c 7.387111,6.986422 10.542043,13.864028 11.082397,24.159116 0.428907,8.171745 0.428803,8.172155 -2.763431,10.858243 -4.238105,3.56613 -6.728618,3.433528 -8.835414,-0.470424 -0.93692,-1.736137 -2.49099,-3.986137 -3.45349,-5 -0.9625,-1.013863 -1.75,-2.293387 -1.75,-2.843387 0,-0.55 -0.934478,-1 -2.076618,-1 -1.761861,0 -2.031163,-0.527585 -1.776732,-3.480764 0.362715,-4.210031 -1.407023,-4.789994 -2.236764,-0.733013 -0.324902,1.588597 -0.972291,3.505733 -1.438641,4.260303 -0.46635,0.75457 -0.734046,3.223527 -0.59488,5.486571 0.176299,2.866888 -0.256213,4.53726 -1.426284,5.508332 -1.468598,1.218828 -1.915884,1.101552 -3.564697,-0.934646 -1.171641,-1.446916 -1.883273,-3.895318 -1.879807,-6.467567 0.01401,-10.396041 4.672656,-16.639216 12.416161,-16.639216 6.543172,0 9.360842,4.459455 6.517917,10.315741 -0.840821,1.732051 -0.530275,1.60338 1.5,-0.621505 4.095607,-4.488186 2.950449,-8.750326 -2.866889,-10.670221 -7.402124,-2.442921 -16.625758,3.411077 -18.146453,11.517077 -1.104191,5.885844 0.08735,12.646676 2.585365,14.669447 3.828609,3.10022 5.885407,1.722473 7.09509,-4.752647 0.49254,-2.636436 1.086098,-4.984092 1.319019,-5.217012 1.269826,-1.269826 4.526368,1.326612 6.133247,4.890033 1.013424,2.247374 2.825078,4.729886 4.025896,5.516692 1.918358,1.256957 2.620577,1.222038 5.786631,-0.287748 1.981828,-0.945068 3.871576,-1.450053 4.199439,-1.12219 0.327863,0.327863 -0.363015,2.771014 -1.535285,5.429224 -2.276236,5.161532 -8.531427,12.207927 -13.679343,15.409606 -7.965563,4.954079 -21.45119,6.286843 -30.918028,3.055582 z m 25.561656,-3.795535 c 5.880893,-2.610121 12.254252,-8.101495 14.608101,-12.586544 1.438042,-2.740058 1.431143,-2.75 -1.908107,-2.75 -3.740497,0 -6.814777,-2.628438 -8.772167,-7.5 l -1.205399,-3 -1.111214,4.210424 c -1.457155,5.521208 -2.588017,6.489928 -7.130094,6.107797 -5.068115,-0.426387 -7.66288,-3.964865 -8.269238,-11.27675 -0.472868,-5.702165 -0.74912,-6.120881 -3.068645,-4.651158 -0.945806,0.599292 -1.02153,1.066872 -0.25,1.543704 1.478091,0.91351 1.355943,7.656107 -0.17504,9.662308 -2.100313,2.752248 -7.439107,4.903675 -12.168537,4.903675 -2.547163,0 -4.54966,0.468029 -4.54966,1.063358 0,0.597299 -1.424444,0.926017 -3.25,0.75 l -3.25,-0.313358 0.230758,-7.5 c 0.126917,-4.125 0.83794,-9.821798 1.580051,-12.65955 l 1.349293,-5.159551 -3.330051,0.540393 c -2.963928,0.480979 -3.330051,0.287793 -3.330051,-1.757116 0,-3.817972 -1.0037832,-1.585171 -1.9777922,4.399376 -4.324831,26.572776 21.5480192,46.815676 45.9777922,35.972992 z m -32.55,-17.342121 c 5.180122,-0.0095 10.364406,-1.94302 12.504514,-4.663726 2.537369,-3.225743 2.541743,-3.83444 0.04549,-6.330697 -2.618048,-2.618048 -2.507939,-3.12478 1.195103,-5.5 6.688639,-4.290253 4.744055,-10.786741 -3.603477,-12.038531 -5.541765,-0.831039 -14.852155,1.078259 -17.810389,3.652407 l -2.281241,1.985051 3.492026,-1.7003 c 1.920615,-0.935166 6.521129,-1.917032 10.223366,-2.181926 7.831274,-0.560324 11.784608,1.195428 11.784608,5.233772 0,2.862114 -4.265232,6.549527 -7.575842,6.549527 -3.310726,0 -3.965293,1.803372 -0.791974,2.181942 5.244888,0.625702 5.835703,7.372584 0.84474,9.646619 -2.987583,1.361233 -10.114503,1.566865 -10.888711,0.31417 -0.49197,-0.796023 0.359314,-7.207094 1.977507,-14.892731 0.41412,-1.96687 0.286989,-3.25 -0.322005,-3.25 -1.368291,0 -3.282449,7.9976 -3.949135,16.5 -0.454197,5.792488 -0.319944,6.784373 0.77827,5.75 0.729932,-0.6875 2.69965,-1.25251 4.37715,-1.255577 z m 7.204692,-6.122806 c 2.250911,-1.86809 1.51159,-3.888361 -1.654692,-4.521617 -2.472224,-0.494445 -3,-1.090322 -3,-3.387102 0,-2.465537 0.454863,-2.863951 3.942432,-3.453172 6.989249,-1.180826 8.150753,-5.706859 1.771649,-6.903586 -4.097586,-0.768712 -6.78201,0.05326 -6.087199,1.863913 0.275328,0.717494 -0.203086,4.711282 -1.063142,8.875083 -0.860057,4.163801 -1.56374,8.095769 -1.56374,8.737706 0,1.389036 5.586731,0.505031 7.654692,-1.211225 z m 42.57204,-0.621617 c 2.426066,-2.762801 2.819818,-5.31975 1.791843,-11.635872 -4.945161,-30.3842304 -43.978988,-38.3574119 -60.627611,-12.384 -1.31503,2.051571 -2.390964,3.948894 -2.390964,4.216275 0,0.26738 1.6615,-0.494162 3.692221,-1.692317 2.86191,-1.688569 5.738661,-2.267968 12.792315,-2.576471 8.703401,-0.380657 9.239922,-0.280348 12.307778,2.301083 1.764227,1.484499 3.207686,3.593614 3.207686,4.686921 0,1.697467 0.382576,1.533165 2.619116,-1.124811 3.715703,-4.415862 7.448458,-6.040808 13.876679,-6.040808 4.607158,0 6.028525,0.433411 8.04966,2.454545 3.463228,3.463228 3.369024,9.305208 -0.218805,13.569101 l -2.673351,3.177096 1.830821,3.399629 c 2.051177,3.808806 3.484935,4.220669 5.742612,1.649629 z M 48.482684,45.404921 c 0.287513,-1.099452 0.114997,-2.25101 -0.383369,-2.559017 -0.498366,-0.308007 -0.90612,0.591545 -0.90612,1.999004 0,3.064042 0.569942,3.311563 1.289489,0.560013 z m 2.018472,-10.818178 c 0.723614,-3.766419 0.105197,-3.882458 -1.734225,-0.325408 -1.931575,3.735254 -1.956178,4.226577 -0.17747,3.544023 0.767946,-0.294688 1.628208,-1.743065 1.911695,-3.218615 z m 10.692039,-2.302622 c 0,-2.003114 -3.435098,-4.284787 -5.305439,-3.523997 -0.657008,0.267248 -0.359795,0.521433 0.660474,0.564854 1.547488,0.06586 1.792612,0.733519 1.478516,4.027131 -0.355124,3.723826 -0.275854,3.857083 1.394965,2.345012 0.974316,-0.881744 1.771484,-2.417594 1.771484,-3.413 z"
     id="path881"
     inkscape:connector-curvature="0"
     clip-path="none"
     inkscape:transform-center-x="14.561474"
     inkscape:transform-center-y="25.397919" />
</svg>
